<?xml version="1.0" encoding="UTF-8" standalone="no"?>
<svg
   xmlns:dc="http://purl.org/dc/elements/1.1/"
   xmlns:cc="http://creativecommons.org/ns#"
   xmlns:rdf="http://www.w3.org/1999/02/22-rdf-syntax-ns#"
   xmlns:svg="http://www.w3.org/2000/svg"
   xmlns="http://www.w3.org/2000/svg"
   xmlns:sodipodi="http://sodipodi.sourceforge.net/DTD/sodipodi-0.dtd"
   xmlns:inkscape="http://www.inkscape.org/namespaces/inkscape"
   inkscape:version="1.0beta2 (2b71d25, 2019-12-03)"
   sodipodi:docname="appiconfg.svg"
   id="svg851"
   style="fill-rule:evenodd;clip-rule:evenodd;stroke-linejoin:round;stroke-miterlimit:2;"
   xml:space="preserve"
   version="1.1"
   viewBox="0 0 456 456"
   height="456"
   width="456"><metadata
   id="metadata857"><rdf:RDF><cc:Work
       rdf:about=""><dc:format>image/svg+xml</dc:format><dc:type
         rdf:resource="http://purl.org/dc/dcmitype/StillImage" /><dc:title></dc:title></cc:Work></rdf:RDF></metadata><defs
   id="defs855" /><sodipodi:namedview
   inkscape:current-layer="svg851"
   inkscape:window-maximized="0"
   inkscape:window-y="122"
   inkscape:window-x="413"
   inkscape:cy="249.95764"
   inkscape:cx="240.96977"
   inkscape:zoom="1.1186761"
   units="mm"
   showgrid="false"
   id="namedview853"
   inkscape:window-height="765"
   inkscape:window-width="1325"
   inkscape:pageshadow="2"
   inkscape:pageopacity="0"
   guidetolerance="10"
   gridtolerance="10"
   objecttolerance="10"
   borderopacity="1"
   inkscape:document-rotation="0"
   bordercolor="#666666"
   pagecolor="#ffffff" />
    
    
    
    
<g
   transform="matrix(0.72115762,0,0,0.72115762,63.576129,63.576063)"
   id="g1471"><path
     inkscape:connector-curvature="0"
     id="path1420"
     style="fill:#ffffff;stroke-width:0.703771"
     d="M 236.00588,127.12301 A 86.129094,100.87723 0 0 0 149.87647,228 a 86.129094,100.87723 0 0 0 86.12941,100.87699 86.129094,100.87723 0 0 0 13.48161,-1.2426 86.129094,100.87723 0 0 1 -83.09304,-100.81375 86.129094,100.87723 0 0 1 72.64782,-99.6344 86.129094,100.87723 0 0 0 -3.03639,-0.0632 z" /><path
     inkscape:connector-curvature="0"
     id="path1424"
     style="fill:#ffffff;stroke-width:0.725489"
     d="m 397.71289,212.39258 a 13.608352,200.03568 83.51021 0 0 -18.29492,0.32812 13.579536,173.6864 83.016178 0 1 16.85351,3.75196 13.579536,173.6864 83.016178 0 1 -171.1875,34.61718 13.579536,173.6864 83.016178 0 1 -173.61523,7.55078 13.579536,173.6864 83.016178 0 1 61.18359,-17.99804 13.608352,200.03568 83.51021 0 0 -83.406246,20.70312 13.608352,200.03568 83.51021 0 0 200.292966,-9.08789 13.608352,200.03568 83.51021 0 0 197.21485,-36.1289 13.608352,200.03568 83.51021 0 0 -29.04102,-3.73633 z" /><path
     id="path1431"
     style="fill:#ffffff;stroke-width:0.703771"
     d="M 236.00588,127.12301 C 188.43805,127.1228 149.87658,172.28699 149.87647,228 c 2.8e-4,10.69795 1.45346,21.32776 4.30509,31.49098 6.77262,-0.53973 10.94769,-1.10639 16.41355,-1.4844 -2.64611,-9.8205 -4.20032,-20.88801 -4.20066,-31.18594 -2.3e-4,-49.61752 30.8065,-91.86806 72.64782,-99.6344 -1.01173,-0.042 -2.02402,-0.0631 -3.03639,-0.0632 z"
     inkscape:connector-curvature="0"
     sodipodi:nodetypes="cccccccc" /></g></svg>
